<?xml version="1.0" encoding="UTF-8" standalone="no"?>
<svg width="35px" height="35px" viewBox="0 0 35 35" version="1.1" xmlns="http://www.w3.org/2000/svg" xmlns:xlink="http://www.w3.org/1999/xlink">
    <!-- Generator: Sketch 44.1 (41455) - http://www.bohemiancoding.com/sketch -->
    <title>Instagram</title>
    <desc>Created with Sketch.</desc>
    <defs></defs>
    <g id="HDMocks-Form-Tablet" stroke="none" stroke-width="1" fill="none" fill-rule="evenodd">
        <g id="HD-Prospecting-Step1-1-Tablet-Landscape-v3" transform="translate(-492.000000, -1052.000000)" fill="#FFFFFF">
            <g id="Footer" transform="translate(-291.000000, 917.000000)">
                <g id="Stacked-Group" transform="translate(387.000000, 60.000000)">
                    <g id="Social" transform="translate(337.000000, 75.000000)">
                        <path d="M89.8846154,32 L63.1153846,32 C62.4996923,32 62,31.496 62,30.875 L62,14 L66.4615385,14 C65.8804231,14.84375 65.6841154,16.417625 65.6841154,17.416625 C65.6841154,23.441 70.555,28.342625 76.5412692,28.342625 C82.5286538,28.342625 87.3995385,23.441 87.3995385,17.416625 C87.3995385,16.417625 87.259,14.867375 86.5384615,14 L91,14 L91,30.875 C91,31.496 90.5003077,32 89.8846154,32 M76.9994312,11 C80.8660112,11 84,14.1342943 84,17.9994299 C84,21.8657057 80.8660112,25 76.9994312,25 C73.1339888,25 70,21.8657057 70,17.9994299 C70,14.1342943 73.1339888,11 76.9994312,11 M86.2,5 L89.8,5 C90.4624,5 91,5.5376 91,6.2 L91,9.8 C91,10.4624 90.4624,11 89.8,11 L86.2,11 C85.5376,11 85,10.4624 85,9.8 L85,6.2 C85,5.5376 85.5376,5 86.2,5 M89.839375,0 L63.160625,0 C60.8626562,0 59,1.85828125 59,4.15078125 L59,30.8492188 C59,33.1417188 60.8626562,35 63.160625,35 L89.839375,35 C92.1373438,35 94,33.1417188 94,30.8492188 L94,4.15078125 C94,1.85828125 92.1373438,0 89.839375,0" id="Instagram"></path>
                    </g>
                </g>
            </g>
        </g>
    </g>
</svg>