<?xml version="1.0" encoding="UTF-8" standalone="no"?>
<svg width="42px" height="35px" viewBox="0 0 42 35" version="1.1" xmlns="http://www.w3.org/2000/svg" xmlns:xlink="http://www.w3.org/1999/xlink">
    <!-- Generator: Sketch 44.1 (41455) - http://www.bohemiancoding.com/sketch -->
    <title>Twitter</title>
    <desc>Created with Sketch.</desc>
    <defs></defs>
    <g id="HDMocks-Form-Tablet" stroke="none" stroke-width="1" fill="none" fill-rule="evenodd">
        <g id="HD-Prospecting-Step1-1-Tablet-Landscape-v3" transform="translate(-551.000000, -1052.000000)" fill="#FFFFFF">
            <g id="Footer" transform="translate(-291.000000, 917.000000)">
                <g id="Stacked-Group" transform="translate(387.000000, 60.000000)">
                    <g id="Social" transform="translate(337.000000, 75.000000)">
                        <path d="M160,4.14337306 C158.456771,4.84615385 156.79521,5.32141567 155.052298,5.5337667 C156.832189,4.4416757 158.197922,2.71000361 158.841345,0.647165042 C157.174855,1.65836042 155.333333,2.39400506 153.366086,2.78837125 C151.798204,1.0718671 149.557316,0 147.077302,0 C142.321888,0 138.463814,3.95630191 138.463814,8.83531961 C138.463814,9.52798844 138.537771,10.2004334 138.685684,10.8475984 C131.524212,10.4785121 125.176263,6.96460816 120.923754,1.61285663 C120.181722,2.92235464 119.757704,4.4416757 119.757704,6.0595883 C119.757704,9.12351029 121.278746,11.8284579 123.591125,13.4135067 C122.181018,13.3705309 120.849797,12.9685807 119.686212,12.3113037 L119.686212,12.4200072 C119.686212,16.7024196 122.656806,20.2744673 126.601162,21.0834236 C125.878852,21.2907187 125.117098,21.3943662 124.330692,21.3943662 C123.776017,21.3943662 123.233668,21.3412784 122.708575,21.2376309 C123.8056,24.7464789 126.985737,27.3022752 130.757528,27.3705309 C127.809121,29.741784 124.091565,31.1549296 120.055996,31.1549296 C119.360803,31.1549296 118.673006,31.1144818 118,31.0335861 C121.8137,33.5362947 126.344779,35 131.208663,35 C147.060046,35 155.725304,21.5384615 155.725304,9.86168292 C155.725304,9.47742867 155.717908,9.09317443 155.703117,8.71650415 C157.386864,7.47020585 158.848741,5.91549296 160,4.14337306" id="Twitter"></path>
                    </g>
                </g>
            </g>
        </g>
    </g>
</svg>
